# xmcd CD database file
#
# Track frame offsets:
#	182
#	20655
#	41522
#	58047
#	74880
#	95037
#	115450
#	139562
#	161817
#	178360
#
# Disc length: 2626 seconds
#
# Revision: 0
# Processed by: cddbd v1.5.2PL0 Copyright (c) Steve Scherf et al.
# Submitted via: CDex 1.79
#
DISCID=9c0a400a
DTITLE=El Rey Joseito Mateo - Republica Dominicana
DYEAR=1900
DGENRE=Salsa
TTITLE0=Linda Quisqueya
TTITLE1=Republica Dominicana
TTITLE2=LLego El Merengue
TTITLE3=Welcome
TTITLE4=Una Mujer Asi
TTITLE5=Somos Asi
TTITLE6=Quisqueya
TTITLE7=Me Tienes Que Recordar
TTITLE8=A Bailar Merengue
TTITLE9=Voy Pa'ya
EXTD=
EXTT0=
EXTT1=
EXTT2=
EXTT3=
EXTT4=
EXTT5=
EXTT6=
EXTT7=
EXTT8=
EXTT9=
PLAYORDER=
